<?xml version="1.0" encoding="utf-8"?>
<svg viewBox="0 0 500 500" xmlns="http://www.w3.org/2000/svg">
  <rect width="500" height="500" rx="250" ry="250" style="stroke: rgb(0, 0, 0); fill: rgb(11, 18, 36); mix-blend-mode: multiply;"/>
  <path d="M 385.004 376.547 L 307.129 385.322 L 313.397 210.143 L 231.448 347.56 L 161.408 262.791 Q 155.767 288.644 149.186 308.936 Q 142.605 329.227 135.241 344.112 Q 125.526 363.855 111.737 379.603 Q 97.949 395.35 80.243 407.258 L 73.975 394.096 Q 96.068 377.644 111.346 347.873 Q 126.623 318.102 135.398 275.012 L 169.399 107.825 L 251.034 260.44 L 323.895 112.839 L 358.993 114.092 Z M 233.485 289.585 L 177.077 192.124 L 169.086 233.803 L 224.24 306.037 Z M 351.786 257.777 L 351.786 251.666 L 343.324 254.799 Q 342.071 277.049 337.449 298.281 Q 332.826 319.512 324.992 339.568 L 340.661 342.076 Q 346.458 318.415 349.122 297.341 Q 351.786 276.266 351.786 257.777 Z" style="fill: rgb(255, 255, 255);"/>
</svg>